<?xml version="1.0" encoding="UTF-8"?>
<!DOCTYPE svg PUBLIC "-//W3C//DTD SVG 1.1//EN" "http://www.w3.org/Graphics/SVG/1.1/DTD/svg11.dtd">
<svg version="1.1" xmlns="http://www.w3.org/2000/svg" xmlns:xlink="http://www.w3.org/1999/xlink" x="0" y="0" width="200" height="200" viewBox="0, 0, 200, 200">
  <g id="Open_Rights_Group">
    <g>
      <path d="M199.981,134.01 L0.003,133.985 L0.019,0 L199.997,0.025 z" fill="#0B0B09"/>
      <g>
        <path d="M35.487,33.686 C39.592,33.686 41.261,38.442 41.261,48.148 C41.261,57.793 39.657,62.612 35.487,62.612 C31.316,62.612 29.648,57.853 29.648,48.148 C29.648,38.378 31.252,33.686 35.487,33.686 M52.808,48.599 C52.808,32.978 46.267,24.366 35.487,24.366 C24.902,24.366 18.101,33.109 18.101,48.148 C18.101,55.5 19.722,61.325 22.596,65.391 L22.531,72.954 L32.347,72.954 L32.347,108.049 L43.767,108.049 L43.767,69.779 C49.45,66.332 52.808,58.975 52.808,48.599" fill="#777776"/>
        <path d="M78.634,100.253 C74.463,100.253 72.795,95.501 72.795,85.795 C72.795,76.024 74.399,71.331 78.634,71.331 C82.739,71.331 84.408,76.09 84.408,85.795 C84.408,95.436 82.804,100.253 78.634,100.253 M84.341,62.956 L84.341,25.432 L63.185,25.432 L63.106,35.845 L72.921,35.845 L72.921,62.994 C65.668,65.652 61.248,73.673 61.248,85.795 C61.248,100.901 68.047,109.642 78.634,109.642 C89.218,109.642 95.954,100.965 95.954,86.243 C95.954,73.617 91.674,65.575 84.341,62.956" fill="#D9272A"/>
        <path d="M120.679,33.686 C124.785,33.686 126.452,38.442 126.452,48.148 C126.452,57.793 124.847,62.612 120.679,62.612 C116.507,62.612 114.838,57.853 114.838,48.148 C114.838,38.378 116.445,33.686 120.679,33.686 M138,48.599 C138,32.978 131.459,24.366 120.679,24.366 C110.093,24.366 103.294,33.109 103.294,48.148 C103.294,55.5 104.913,61.325 107.786,65.391 L107.724,72.954 L117.538,72.954 L117.538,108.049 L128.957,108.049 L128.957,69.779 C134.642,66.332 138,58.975 138,48.599" fill="#777776"/>
        <path d="M163.825,100.253 C159.655,100.253 157.986,95.501 157.986,85.795 C157.986,76.024 159.59,71.331 163.825,71.331 C167.931,71.331 169.597,76.09 169.597,85.795 C169.597,95.436 167.995,100.253 163.825,100.253 M169.533,62.956 L169.533,25.432 L148.376,25.432 L148.295,35.845 L158.113,35.845 L158.113,62.994 C150.861,65.652 146.44,73.673 146.44,85.795 C146.44,100.901 153.238,109.642 163.825,109.642 C174.412,109.642 181.148,100.965 181.148,86.243 C181.148,73.617 176.866,65.575 169.533,62.956" fill="#777776"/>
      </g>
    </g>
    <g>
      <path d="M200,199.85 L0.022,200 L0,134.16 L199.978,134.01 z" fill="#D9272A"/>
      <g>
        <desc>OPEN</desc>
        <path d="M23.564,163.516 C23.216,163.114 22.677,162.852 22.015,162.852 C21.353,162.852 20.796,163.114 20.448,163.516 C19.978,164.039 19.856,164.615 19.856,167.005 C19.856,169.394 19.978,169.969 20.448,170.493 C20.796,170.895 21.353,171.156 22.015,171.156 C22.677,171.156 23.216,170.895 23.564,170.493 C24.035,169.969 24.174,169.394 24.174,167.005 C24.174,164.615 24.035,164.039 23.564,163.516 M25.358,171.958 C24.487,172.831 23.425,173.319 22.015,173.319 C20.605,173.319 19.525,172.831 18.655,171.958 C17.401,170.703 17.436,169.15 17.436,167.005 C17.436,164.859 17.401,163.306 18.655,162.051 C19.525,161.179 20.605,160.69 22.015,160.69 C23.425,160.69 24.487,161.179 25.358,162.051 C26.611,163.306 26.594,164.859 26.594,167.005 C26.594,169.15 26.611,170.703 25.358,171.958" fill="#FFFFFE"/>
        <path d="M33.749,162.958 L31.486,162.958 L31.486,166.36 L33.749,166.36 C34.846,166.36 35.543,165.679 35.543,164.667 C35.543,163.656 34.846,162.958 33.749,162.958 M33.871,168.54 L31.486,168.54 L31.486,173.215 L29.066,173.215 L29.066,160.796 L33.871,160.796 C36.43,160.796 37.963,162.556 37.963,164.667 C37.963,166.778 36.43,168.54 33.871,168.54" fill="#FFFFFE"/>
        <path d="M40,173.215 L40,160.795 L48.165,160.795 L48.165,162.958 L42.42,162.958 L42.42,165.87 L47.312,165.87 L47.312,168.033 L42.42,168.033 L42.42,171.052 L48.165,171.052 L48.165,173.215 z" fill="#FFFFFE"/>
        <path d="M57.862,173.215 L52.953,165.591 L52.953,173.215 L50.533,173.215 L50.533,160.795 L52.692,160.795 L57.601,168.401 L57.601,160.795 L60.02,160.795 L60.02,173.215 z" fill="#FFFFFE"/>
      </g>
      <g>
        <desc>RIGHTS</desc>
        <path d="M70.562,162.959 L68.281,162.959 L68.281,166.238 L70.562,166.238 C71.624,166.238 72.32,165.558 72.32,164.598 C72.32,163.639 71.624,162.959 70.562,162.959 M72.442,173.215 L70.022,168.261 L68.281,168.261 L68.281,173.215 L65.861,173.215 L65.861,160.796 L70.719,160.796 C73.243,160.796 74.74,162.522 74.74,164.598 C74.74,166.343 73.678,167.424 72.477,167.861 L75.245,173.215 z" fill="#FFFFFE"/>
        <path d="M77.247,160.796 L79.667,160.796 L79.667,173.215 L77.247,173.215 z" fill="#FFFFFE"/>
        <path d="M90.2,171.908 C89.208,172.936 88.024,173.32 86.701,173.32 C85.343,173.32 84.229,172.831 83.358,171.96 C82.105,170.703 82.139,169.151 82.139,167.005 C82.139,164.86 82.105,163.307 83.358,162.052 C84.229,161.179 85.308,160.691 86.701,160.691 C89.574,160.691 91.036,162.576 91.367,164.668 L88.929,164.668 C88.651,163.499 87.937,162.854 86.701,162.854 C86.039,162.854 85.499,163.116 85.151,163.517 C84.681,164.041 84.559,164.617 84.559,167.005 C84.559,169.396 84.681,169.988 85.151,170.511 C85.499,170.913 86.039,171.157 86.701,171.157 C87.432,171.157 88.024,170.895 88.424,170.459 C88.825,170.006 88.982,169.447 88.982,168.802 L88.982,168.331 L86.701,168.331 L86.701,166.308 L91.384,166.308 L91.384,168.123 C91.384,169.919 91.071,171.001 90.2,171.908" fill="#FFFFFE"/>
        <path d="M100.455,173.215 L100.455,168.017 L96.259,168.017 L96.259,173.215 L93.839,173.215 L93.839,160.796 L96.259,160.796 L96.259,165.871 L100.455,165.871 L100.455,160.796 L102.876,160.796 L102.876,173.215 z" fill="#FFFFFE"/>
        <path d="M110.5,162.959 L110.5,173.215 L108.079,173.215 L108.079,162.959 L104.842,162.959 L104.842,160.796 L113.739,160.796 L113.739,162.959 z" fill="#FFFFFE"/>
        <path d="M119.119,173.32 C117.238,173.32 115.811,172.919 114.592,171.68 L116.159,170.111 C116.943,170.895 118.004,171.157 119.153,171.157 C120.581,171.157 121.347,170.617 121.347,169.622 C121.347,169.186 121.225,168.82 120.964,168.575 C120.721,168.349 120.441,168.226 119.867,168.139 L118.37,167.931 C117.307,167.773 116.525,167.441 115.968,166.901 C115.375,166.308 115.08,165.505 115.08,164.459 C115.08,162.244 116.716,160.691 119.397,160.691 C121.104,160.691 122.34,161.11 123.402,162.139 L121.87,163.657 C121.085,162.906 120.146,162.802 119.328,162.802 C118.039,162.802 117.413,163.517 117.413,164.372 C117.413,164.686 117.517,165.017 117.778,165.262 C118.022,165.488 118.422,165.68 118.927,165.749 L120.39,165.959 C121.52,166.116 122.234,166.43 122.758,166.918 C123.419,167.547 123.715,168.453 123.715,169.552 C123.715,171.96 121.712,173.32 119.119,173.32" fill="#FFFFFE"/>
      </g>
      <g>
        <desc>GROUP</desc>
        <path d="M135.8,171.908 C134.808,172.936 133.624,173.32 132.301,173.32 C130.943,173.32 129.829,172.831 128.958,171.96 C127.705,170.703 127.739,169.151 127.739,167.005 C127.739,164.86 127.705,163.308 128.958,162.051 C129.829,161.179 130.908,160.691 132.301,160.691 C135.174,160.691 136.636,162.575 136.967,164.668 L134.529,164.668 C134.251,163.5 133.537,162.855 132.301,162.855 C131.639,162.855 131.1,163.116 130.751,163.517 C130.281,164.04 130.159,164.615 130.159,167.005 C130.159,169.396 130.281,169.988 130.751,170.511 C131.1,170.912 131.639,171.157 132.301,171.157 C133.032,171.157 133.624,170.895 134.024,170.459 C134.425,170.005 134.582,169.447 134.582,168.802 L134.582,168.331 L132.301,168.331 L132.301,166.307 L136.984,166.307 L136.984,168.122 C136.984,169.919 136.671,171.001 135.8,171.908" fill="#FFFFFE"/>
        <path d="M144.14,162.958 L141.859,162.958 L141.859,166.238 L144.14,166.238 C145.202,166.238 145.898,165.558 145.898,164.598 C145.898,163.639 145.202,162.958 144.14,162.958 M146.02,173.215 L143.6,168.261 L141.859,168.261 L141.859,173.215 L139.439,173.215 L139.439,160.796 L144.297,160.796 C146.821,160.796 148.318,162.522 148.318,164.598 C148.318,166.343 147.256,167.424 146.055,167.861 L148.823,173.215 z" fill="#FFFFFE"/>
        <path d="M156.536,163.517 C156.188,163.116 155.648,162.854 154.986,162.854 C154.325,162.854 153.768,163.116 153.419,163.517 C152.949,164.039 152.827,164.615 152.827,167.006 C152.827,169.395 152.949,169.971 153.419,170.495 C153.768,170.895 154.325,171.156 154.986,171.156 C155.648,171.156 156.188,170.895 156.536,170.495 C157.006,169.971 157.145,169.395 157.145,167.006 C157.145,164.615 157.006,164.039 156.536,163.517 M158.329,171.959 C157.459,172.832 156.397,173.32 154.986,173.32 C153.576,173.32 152.497,172.832 151.626,171.959 C150.373,170.703 150.407,169.151 150.407,167.006 C150.407,164.86 150.373,163.308 151.626,162.051 C152.497,161.179 153.576,160.691 154.986,160.691 C156.397,160.691 157.459,161.179 158.329,162.051 C159.583,163.308 159.565,164.86 159.565,167.006 C159.565,169.151 159.583,170.703 158.329,171.959" fill="#FFFFFE"/>
        <path d="M166.407,173.32 C163.866,173.32 161.846,171.593 161.846,168.959 L161.846,160.796 L164.266,160.796 L164.266,168.872 C164.266,170.303 165.102,171.157 166.407,171.157 C167.713,171.157 168.566,170.303 168.566,168.872 L168.566,160.796 L170.969,160.796 L170.969,168.959 C170.969,171.593 168.949,173.32 166.407,173.32" fill="#FFFFFE"/>
        <path d="M178.351,162.958 L176.087,162.958 L176.087,166.36 L178.351,166.36 C179.448,166.36 180.144,165.68 180.144,164.668 C180.144,163.656 179.448,162.958 178.351,162.958 M178.473,168.54 L176.087,168.54 L176.087,173.215 L173.668,173.215 L173.668,160.796 L178.473,160.796 C181.032,160.796 182.564,162.557 182.564,164.668 C182.564,166.778 181.032,168.54 178.473,168.54" fill="#FFFFFE"/>
      </g>
    </g>
  </g>
</svg>
