<?xml version="1.0" encoding="utf-8"?>
<!-- Generator: Adobe Illustrator 22.0.1, SVG Export Plug-In . SVG Version: 6.00 Build 0)  -->
<svg version="1.1" id="Layer_1" xmlns="http://www.w3.org/2000/svg" xmlns:xlink="http://www.w3.org/1999/xlink" x="0px" y="0px"
	 viewBox="0 0 300 250" style="enable-background:new 0 0 300 250;" xml:space="preserve">
<style type="text/css">
	.st0{opacity:0.75;}
	.st1{opacity:0.5;fill:#003768;}
	.st2{opacity:0.75;fill:#003768;}
	.st3{opacity:0.25;fill:#003768;}
	.st4{fill:#FFFFFF;}
	.st5{fill:#003768;}
</style>
<g>
	<g class="st0">
		<polygon class="st1" points="91.7,83.9 41.9,83.9 17,127 41.9,170.2 91.7,170.2 116.6,127 		"/>
		<polygon class="st1" points="177.7,26.7 126.4,26.7 100.7,71.1 126.4,115.6 177.7,115.6 203.4,71.1 		"/>
		<polygon class="st2" points="222.2,51.4 186.7,51.4 169,82.2 186.7,112.9 222.2,112.9 240,82.2 		"/>
		<polygon class="st1" points="147.7,103.3 91.9,103.3 64,151.6 91.9,200 147.7,200 175.6,151.6 		"/>
		<polygon class="st2" points="177.9,162.8 135.7,162.8 114.6,199.3 135.7,235.9 177.9,235.9 199,199.3 		"/>
		<polygon class="st2" points="174,45.2 119.8,45.2 92.6,92.2 119.8,139.2 174,139.2 201.1,92.2 		"/>
		<polygon class="st1" points="257,85 225,85 209.1,112.7 225,140.3 257,140.3 272.9,112.7 		"/>
		<polygon class="st2" points="256.6,116.2 204,116.2 177.7,161.8 204,207.3 256.6,207.3 282.9,161.8 		"/>
		<polygon class="st3" points="215.2,113.1 150.9,113.1 118.8,168.7 150.9,224.4 215.2,224.4 247.3,168.7 		"/>
	</g>
	<g>
		<g>
			<polygon class="st4" points="229.3,89.9 159.3,89.9 124.3,150.5 159.3,211.1 229.3,211.1 264.3,150.5 			"/>
			<g>
				<path class="st5" d="M167.8,138.2c-0.2,0-0.4,0.1-0.7,0.1c-0.3,0-0.5,0.1-0.7,0.2c-0.2,0.1-0.4,0.3-0.4,0.4
					c-0.1,0.2-0.1,0.4-0.1,0.7v1.1c0,0.8,0,1.4,0,1.7c0,0.3,0,0.5,0,0.7c-0.9,0.4-1.8,0.7-2.8,1c-0.9,0.2-1.8,0.3-2.7,0.3
					c-0.9,0-1.9-0.2-2.7-0.5s-1.6-0.9-2.3-1.5c-0.7-0.7-1.2-1.5-1.6-2.4c-0.4-0.9-0.6-2-0.6-3.2c0-1.1,0.2-2.2,0.6-3.1
					c0.4-1,0.9-1.8,1.6-2.5c0.7-0.7,1.4-1.2,2.4-1.6c0.9-0.4,1.9-0.6,2.9-0.6c0.8,0,1.6,0.1,2.2,0.3c0.6,0.2,1.2,0.4,1.6,0.7
					l0.4-0.7h0.8l0.1,5.2h-0.9c-0.1-0.6-0.3-1.1-0.5-1.7c-0.2-0.6-0.5-1-0.8-1.5c-0.3-0.4-0.8-0.8-1.2-1c-0.5-0.3-1.1-0.4-1.8-0.4
					c-0.7,0-1.4,0.2-2,0.5c-0.6,0.3-1.1,0.8-1.5,1.4c-0.4,0.6-0.8,1.3-1,2.2c-0.2,0.9-0.3,1.8-0.3,2.9c0,0.9,0.1,1.8,0.3,2.7
					c0.2,0.8,0.6,1.5,1,2.2c0.4,0.6,1,1.1,1.6,1.5c0.6,0.4,1.4,0.5,2.2,0.5c0.6,0,1.2-0.1,1.7-0.3c0.5-0.2,0.9-0.4,1.1-0.6
					c0.1-0.4,0.1-0.7,0.1-1.1c0-0.4,0-0.7,0-0.9v-0.8c0-0.3,0-0.6-0.1-0.8c-0.1-0.2-0.2-0.4-0.5-0.5c-0.2-0.1-0.5-0.2-0.9-0.2
					c-0.4-0.1-0.7-0.1-0.9-0.1v-0.8h6.5V138.2z"/>
				<path class="st5" d="M176,135.1c0,0.4-0.1,0.7-0.3,0.9c-0.2,0.3-0.4,0.4-0.8,0.4c-0.4,0-0.7-0.1-0.9-0.3
					c-0.2-0.2-0.3-0.4-0.3-0.7c0-0.2,0-0.3,0-0.4c0-0.1,0-0.3,0.1-0.4c-0.3,0-0.7,0.1-1.1,0.4c-0.4,0.3-0.8,0.6-1.1,1.1v6
					c0,0.2,0,0.4,0.1,0.6c0.1,0.2,0.2,0.3,0.4,0.3c0.2,0.1,0.4,0.1,0.7,0.2c0.3,0,0.5,0.1,0.7,0.1v0.7h-5.4v-0.7c0.2,0,0.3,0,0.5,0
					c0.2,0,0.3,0,0.4-0.1c0.2-0.1,0.3-0.2,0.4-0.3c0.1-0.2,0.1-0.4,0.1-0.6V136c0-0.2-0.1-0.4-0.2-0.6c-0.1-0.2-0.2-0.4-0.4-0.5
					c-0.1-0.1-0.3-0.1-0.5-0.2c-0.2,0-0.4-0.1-0.6-0.1v-0.7l3.4-0.2l0.1,0.1v1.4h0.1c0.4-0.6,0.9-1,1.4-1.3c0.5-0.3,1-0.4,1.4-0.4
					c0.4,0,0.8,0.1,1.1,0.4C175.9,134.3,176,134.7,176,135.1z"/>
				<path class="st5" d="M186.3,143.9c-0.3,0.1-0.6,0.2-0.9,0.3c-0.2,0.1-0.5,0.1-0.8,0.1c-0.5,0-1-0.1-1.3-0.4s-0.5-0.6-0.6-1.1
					h-0.1c-0.5,0.5-0.9,0.9-1.5,1.1c-0.5,0.3-1.1,0.4-1.9,0.4c-0.8,0-1.4-0.2-1.9-0.7c-0.5-0.5-0.7-1.1-0.7-1.9
					c0-0.4,0.1-0.8,0.2-1.1c0.1-0.3,0.3-0.6,0.5-0.8c0.2-0.2,0.4-0.4,0.7-0.6c0.3-0.2,0.6-0.3,0.8-0.4c0.3-0.1,0.9-0.3,1.9-0.7
					s1.6-0.6,1.9-0.8v-1c0-0.1,0-0.3-0.1-0.5c0-0.3-0.1-0.5-0.2-0.7c-0.1-0.3-0.3-0.5-0.6-0.7c-0.3-0.2-0.6-0.3-1.1-0.3
					c-0.3,0-0.6,0.1-0.9,0.2c-0.3,0.1-0.5,0.2-0.6,0.3c0,0.1,0,0.3,0.1,0.6c0.1,0.3,0.1,0.5,0.1,0.8c0,0.2-0.1,0.5-0.3,0.7
					c-0.2,0.2-0.5,0.3-0.9,0.3c-0.3,0-0.6-0.1-0.8-0.4c-0.2-0.2-0.2-0.5-0.2-0.8c0-0.3,0.1-0.6,0.3-0.9c0.2-0.3,0.5-0.6,0.9-0.8
					c0.3-0.2,0.7-0.4,1.1-0.5c0.4-0.1,0.9-0.2,1.3-0.2c0.6,0,1.1,0,1.5,0.1c0.4,0.1,0.8,0.3,1.2,0.5c0.4,0.3,0.6,0.6,0.8,1
					c0.2,0.4,0.3,1,0.3,1.7c0,1,0,1.9,0,2.6c0,0.8,0,1.6,0,2.5c0,0.3,0,0.5,0.1,0.6c0.1,0.2,0.2,0.3,0.4,0.4
					c0.1,0.1,0.3,0.1,0.5,0.1c0.2,0,0.5,0,0.7,0V143.9z M182.7,138.4c-0.6,0.2-1.1,0.3-1.6,0.5s-0.9,0.4-1.2,0.6
					c-0.3,0.2-0.6,0.5-0.8,0.8c-0.2,0.3-0.3,0.7-0.3,1.2c0,0.6,0.2,1,0.5,1.3c0.3,0.3,0.7,0.4,1.2,0.4c0.5,0,0.9-0.1,1.3-0.4
					c0.4-0.2,0.7-0.5,0.9-0.9L182.7,138.4z"/>
				<path class="st5" d="M198.6,144.1h-5v-0.7c0.2,0,0.3,0,0.5,0c0.2,0,0.3,0,0.5-0.1c0.2-0.1,0.3-0.2,0.4-0.3
					c0.1-0.2,0.1-0.4,0.1-0.6v-5.3c0-0.7-0.2-1.3-0.5-1.7c-0.3-0.4-0.8-0.6-1.3-0.6c-0.4,0-0.7,0.1-1,0.2c-0.3,0.1-0.6,0.3-0.8,0.4
					c-0.2,0.2-0.4,0.3-0.5,0.5s-0.2,0.3-0.3,0.4v5.9c0,0.2,0,0.4,0.1,0.6c0.1,0.2,0.2,0.3,0.4,0.4c0.1,0.1,0.3,0.1,0.5,0.2
					c0.2,0,0.3,0.1,0.5,0.1v0.7h-5v-0.7c0.2,0,0.3,0,0.5,0c0.2,0,0.3,0,0.4-0.1c0.2-0.1,0.3-0.2,0.4-0.3c0.1-0.2,0.1-0.4,0.1-0.6
					V136c0-0.2-0.1-0.5-0.2-0.7c-0.1-0.2-0.2-0.4-0.4-0.5c-0.1-0.1-0.3-0.1-0.5-0.2s-0.4-0.1-0.6-0.1v-0.7l3.4-0.2l0.1,0.1v1.4h0.1
					c0.2-0.2,0.4-0.4,0.6-0.6c0.3-0.2,0.5-0.4,0.7-0.6c0.3-0.2,0.6-0.3,0.9-0.4c0.4-0.1,0.8-0.2,1.2-0.2c1,0,1.7,0.3,2.2,0.9
					s0.7,1.4,0.7,2.5v5.3c0,0.2,0,0.4,0.1,0.6c0.1,0.1,0.2,0.3,0.4,0.3c0.2,0.1,0.3,0.1,0.4,0.1c0.1,0,0.3,0,0.5,0.1V144.1z"/>
				<path class="st5" d="M205.3,143.6c-0.5,0.2-0.9,0.3-1.3,0.5c-0.4,0.1-0.9,0.2-1.5,0.2c-0.9,0-1.5-0.2-1.8-0.7
					c-0.4-0.4-0.5-1-0.5-1.8v-7h-1.9v-1h1.9v-3.2h1.9v3.2h3v1h-2.9v5.7c0,0.4,0,0.8,0,1.1c0,0.3,0.1,0.5,0.2,0.8
					c0.1,0.2,0.3,0.4,0.5,0.5s0.5,0.2,0.9,0.2c0.2,0,0.4,0,0.8,0c0.3,0,0.6-0.1,0.7-0.1V143.6z"/>
				<g>
					<path class="st5" d="M167.7,166.3h-4c-0.9-1.4-1.7-2.6-2.4-3.6c-0.7-1-1.5-2-2.3-3.1h-1.5v4.7c0,0.2,0,0.5,0.1,0.6
						c0.1,0.2,0.2,0.3,0.5,0.4c0.1,0,0.3,0.1,0.7,0.1c0.3,0,0.6,0.1,0.8,0.1v0.7h-6.3v-0.7c0.2,0,0.4,0,0.7-0.1
						c0.3,0,0.5-0.1,0.7-0.1c0.2-0.1,0.4-0.2,0.5-0.4c0.1-0.2,0.1-0.4,0.1-0.7v-10.7c0-0.2,0-0.5-0.1-0.6c-0.1-0.2-0.2-0.3-0.5-0.4
						c-0.2-0.1-0.4-0.1-0.7-0.2c-0.3-0.1-0.5-0.1-0.7-0.1v-0.7h6.8c0.6,0,1.2,0.1,1.8,0.2c0.5,0.1,1,0.3,1.5,0.6
						c0.4,0.3,0.8,0.6,1,1.1s0.4,1,0.4,1.6c0,0.6-0.1,1.1-0.3,1.5c-0.2,0.4-0.4,0.8-0.8,1.1c-0.3,0.3-0.7,0.6-1.1,0.8
						c-0.4,0.2-0.9,0.4-1.4,0.6c0.7,1,1.3,1.8,1.8,2.4c0.5,0.7,1.1,1.5,1.8,2.4c0.3,0.4,0.6,0.7,0.8,0.9c0.2,0.2,0.5,0.4,0.7,0.5
						c0.2,0.1,0.4,0.2,0.7,0.2c0.3,0,0.5,0.1,0.7,0.1V166.3z M162.2,155.3c0-0.9-0.3-1.6-0.8-2.1c-0.5-0.5-1.2-0.8-2.2-0.8h-1.8v6.3
						h1.4c1,0,1.8-0.3,2.4-0.9C161.9,157.1,162.2,156.3,162.2,155.3z"/>
					<path class="st5" d="M176.7,163.9c-0.4,0.8-1,1.5-1.7,2c-0.7,0.5-1.6,0.7-2.5,0.7c-0.8,0-1.6-0.1-2.2-0.4
						c-0.6-0.3-1.1-0.7-1.5-1.2c-0.4-0.5-0.7-1.1-0.9-1.8c-0.2-0.7-0.3-1.4-0.3-2.1c0-0.7,0.1-1.3,0.3-2c0.2-0.6,0.5-1.2,0.9-1.7
						c0.4-0.5,0.9-0.9,1.5-1.2c0.6-0.3,1.2-0.5,2-0.5c0.8,0,1.4,0.1,1.9,0.4c0.5,0.2,1,0.6,1.3,1c0.3,0.4,0.6,0.8,0.7,1.4
						c0.2,0.5,0.2,1.1,0.2,1.7v0.7h-6.8c0,0.7,0.1,1.3,0.2,1.8c0.1,0.6,0.3,1,0.6,1.5c0.3,0.4,0.6,0.7,1.1,1c0.4,0.2,1,0.4,1.6,0.4
						c0.6,0,1.2-0.1,1.6-0.4c0.4-0.3,0.9-0.8,1.3-1.6L176.7,163.9z M174.4,159.9c0-0.4,0-0.8-0.1-1.2c-0.1-0.4-0.2-0.8-0.3-1.1
						c-0.2-0.3-0.4-0.6-0.7-0.8c-0.3-0.2-0.6-0.3-1.1-0.3c-0.7,0-1.3,0.3-1.8,0.9c-0.5,0.6-0.7,1.5-0.8,2.5H174.4z"/>
					<path class="st5" d="M182.4,166.6c-1.5,0-2.7-0.5-3.5-1.5c-0.8-1-1.3-2.3-1.3-4c0-0.7,0.1-1.4,0.3-2c0.2-0.6,0.6-1.2,1-1.7
						c0.4-0.5,0.9-0.9,1.5-1.2c0.6-0.3,1.3-0.5,2-0.5c1,0,1.8,0.2,2.5,0.7c0.6,0.5,0.9,1.1,0.9,2c0,0.3-0.1,0.7-0.3,0.9
						c-0.2,0.3-0.4,0.4-0.8,0.4c-0.4,0-0.7-0.1-1-0.3c-0.2-0.2-0.3-0.4-0.3-0.7c0-0.3,0-0.6,0.1-1c0.1-0.3,0.1-0.6,0.1-0.7
						c-0.1-0.2-0.3-0.4-0.6-0.4c-0.2-0.1-0.5-0.1-0.8-0.1c-0.3,0-0.7,0.1-1,0.2c-0.3,0.1-0.6,0.4-0.9,0.8c-0.3,0.3-0.5,0.8-0.6,1.4
						c-0.2,0.6-0.2,1.3-0.2,2.1c0,1.3,0.3,2.3,0.9,3.2c0.6,0.8,1.3,1.2,2.3,1.2c0.7,0,1.2-0.2,1.7-0.5c0.5-0.3,0.9-0.8,1.3-1.5
						l0.7,0.4c-0.5,0.8-1.1,1.5-1.8,2C184,166.3,183.2,166.6,182.4,166.6z"/>
					<path class="st5" d="M192,166.3h-5v-0.7c0.2,0,0.3,0,0.5,0c0.2,0,0.3,0,0.4-0.1c0.2-0.1,0.3-0.2,0.4-0.3
						c0.1-0.2,0.1-0.4,0.1-0.6v-6.3c0-0.2-0.1-0.4-0.2-0.6c-0.1-0.2-0.2-0.3-0.4-0.5c-0.1-0.1-0.3-0.2-0.6-0.2
						c-0.3-0.1-0.5-0.1-0.7-0.1v-0.7l3.6-0.2l0.1,0.1v8.4c0,0.2,0,0.4,0.1,0.6c0.1,0.2,0.2,0.3,0.4,0.4c0.2,0.1,0.3,0.1,0.4,0.2
						c0.1,0,0.3,0.1,0.5,0.1V166.3z M190.7,151.8c0,0.4-0.1,0.7-0.4,1c-0.3,0.3-0.6,0.4-1,0.4c-0.4,0-0.7-0.1-0.9-0.4
						c-0.3-0.3-0.4-0.6-0.4-1c0-0.4,0.1-0.7,0.4-1c0.3-0.3,0.6-0.4,0.9-0.4c0.4,0,0.7,0.1,1,0.4
						C190.6,151.2,190.7,151.5,190.7,151.8z"/>
					<path class="st5" d="M201.9,157.2c0.4,0.5,0.7,1.1,1,1.7c0.2,0.6,0.3,1.4,0.3,2.2c0,0.8-0.1,1.6-0.4,2.2
						c-0.3,0.7-0.6,1.2-1.1,1.7c-0.5,0.5-1,0.8-1.6,1.1c-0.6,0.3-1.2,0.4-1.8,0.4c-0.6,0-1.1-0.1-1.5-0.2c-0.4-0.1-0.7-0.3-1-0.5
						h-0.1v3.1c0,0.3,0,0.5,0.1,0.6c0.1,0.2,0.2,0.3,0.4,0.4c0.2,0.1,0.4,0.1,0.7,0.2c0.3,0.1,0.6,0.1,0.8,0.1v0.7h-5.7v-0.7
						c0.2,0,0.4,0,0.6-0.1c0.2,0,0.4-0.1,0.5-0.1c0.2-0.1,0.4-0.2,0.4-0.4c0.1-0.2,0.1-0.4,0.1-0.6v-10.9c0-0.2-0.1-0.4-0.2-0.6
						c-0.1-0.2-0.2-0.4-0.4-0.5c-0.1-0.1-0.3-0.1-0.5-0.2s-0.4-0.1-0.6-0.1v-0.7l3.5-0.2l0.1,0.1v1.2l0.1,0c0.4-0.4,0.8-0.8,1.3-1
						c0.5-0.3,1.1-0.4,1.6-0.4c0.6,0,1.2,0.1,1.8,0.4C201,156.4,201.5,156.8,201.9,157.2z M200.2,164.6c0.3-0.4,0.5-0.9,0.6-1.5
						c0.1-0.6,0.2-1.2,0.2-1.9c0-0.5-0.1-1-0.2-1.6c-0.1-0.5-0.3-1-0.5-1.4c-0.2-0.4-0.5-0.7-0.9-1c-0.4-0.3-0.8-0.4-1.4-0.4
						c-0.5,0-1,0.1-1.3,0.3c-0.4,0.2-0.7,0.5-0.9,0.8v6.1c0.1,0.2,0.2,0.4,0.3,0.6c0.1,0.2,0.3,0.4,0.5,0.5c0.2,0.2,0.4,0.3,0.7,0.4
						c0.3,0.1,0.6,0.2,0.9,0.2c0.4,0,0.8-0.1,1.1-0.3C199.6,165.3,199.9,165,200.2,164.6z"/>
					<path class="st5" d="M208.9,166.3h-5v-0.7c0.2,0,0.3,0,0.5,0c0.2,0,0.3,0,0.4-0.1c0.2-0.1,0.3-0.2,0.4-0.3
						c0.1-0.2,0.1-0.4,0.1-0.6v-6.3c0-0.2-0.1-0.4-0.2-0.6c-0.1-0.2-0.2-0.3-0.4-0.5c-0.1-0.1-0.3-0.2-0.6-0.2
						c-0.3-0.1-0.5-0.1-0.7-0.1v-0.7l3.6-0.2l0.1,0.1v8.4c0,0.2,0,0.4,0.1,0.6c0.1,0.2,0.2,0.3,0.4,0.4c0.2,0.1,0.3,0.1,0.4,0.2
						c0.1,0,0.3,0.1,0.5,0.1V166.3z M207.5,151.8c0,0.4-0.1,0.7-0.4,1c-0.3,0.3-0.6,0.4-1,0.4c-0.4,0-0.7-0.1-0.9-0.4
						c-0.3-0.3-0.4-0.6-0.4-1c0-0.4,0.1-0.7,0.4-1c0.3-0.3,0.6-0.4,0.9-0.4c0.4,0,0.7,0.1,1,0.4
						C207.4,151.2,207.5,151.5,207.5,151.8z"/>
					<path class="st5" d="M218.6,163.9c-0.4,0.8-1,1.5-1.7,2c-0.7,0.5-1.6,0.7-2.5,0.7c-0.8,0-1.6-0.1-2.2-0.4
						c-0.6-0.3-1.1-0.7-1.5-1.2c-0.4-0.5-0.7-1.1-0.9-1.8c-0.2-0.7-0.3-1.4-0.3-2.1c0-0.7,0.1-1.3,0.3-2c0.2-0.6,0.5-1.2,0.9-1.7
						c0.4-0.5,0.9-0.9,1.5-1.2c0.6-0.3,1.2-0.5,2-0.5c0.8,0,1.4,0.1,1.9,0.4c0.5,0.2,1,0.6,1.3,1c0.3,0.4,0.6,0.8,0.7,1.4
						c0.2,0.5,0.2,1.1,0.2,1.7v0.7h-6.8c0,0.7,0.1,1.3,0.2,1.8c0.1,0.6,0.3,1,0.6,1.5c0.3,0.4,0.6,0.7,1.1,1c0.4,0.2,1,0.4,1.6,0.4
						c0.6,0,1.2-0.1,1.6-0.4c0.4-0.3,0.9-0.8,1.3-1.6L218.6,163.9z M216.3,159.9c0-0.4,0-0.8-0.1-1.2c-0.1-0.4-0.2-0.8-0.3-1.1
						c-0.2-0.3-0.4-0.6-0.7-0.8c-0.3-0.2-0.6-0.3-1.1-0.3c-0.7,0-1.3,0.3-1.8,0.9c-0.5,0.6-0.7,1.5-0.8,2.5H216.3z"/>
					<path class="st5" d="M230.5,166.3h-5v-0.7c0.2,0,0.3,0,0.5,0c0.2,0,0.3,0,0.5-0.1c0.2-0.1,0.3-0.2,0.4-0.3
						c0.1-0.2,0.1-0.4,0.1-0.6v-5.3c0-0.7-0.2-1.3-0.5-1.7c-0.3-0.4-0.8-0.6-1.3-0.6c-0.4,0-0.7,0.1-1,0.2c-0.3,0.1-0.6,0.3-0.8,0.4
						c-0.2,0.2-0.4,0.3-0.5,0.5c-0.1,0.2-0.2,0.3-0.3,0.4v5.9c0,0.2,0,0.4,0.1,0.6c0.1,0.2,0.2,0.3,0.4,0.4c0.1,0.1,0.3,0.1,0.5,0.2
						c0.2,0,0.3,0.1,0.5,0.1v0.7h-5v-0.7c0.2,0,0.3,0,0.5,0c0.2,0,0.3,0,0.4-0.1c0.2-0.1,0.3-0.2,0.4-0.3c0.1-0.2,0.1-0.4,0.1-0.6
						v-6.3c0-0.2-0.1-0.5-0.2-0.7c-0.1-0.2-0.2-0.4-0.4-0.5c-0.1-0.1-0.3-0.1-0.5-0.2c-0.2,0-0.4-0.1-0.6-0.1v-0.7l3.4-0.2l0.1,0.1
						v1.4h0.1c0.2-0.2,0.4-0.4,0.6-0.6c0.3-0.2,0.5-0.4,0.7-0.6c0.3-0.2,0.6-0.3,0.9-0.4c0.4-0.1,0.8-0.2,1.2-0.2
						c1,0,1.7,0.3,2.2,0.9c0.5,0.6,0.7,1.4,0.7,2.5v5.3c0,0.2,0,0.4,0.1,0.6c0.1,0.1,0.2,0.3,0.4,0.3c0.2,0.1,0.3,0.1,0.4,0.1
						c0.1,0,0.3,0,0.5,0.1V166.3z"/>
					<path class="st5" d="M237.3,165.8c-0.5,0.2-0.9,0.3-1.3,0.5c-0.4,0.1-0.9,0.2-1.5,0.2c-0.9,0-1.5-0.2-1.8-0.7
						c-0.4-0.4-0.5-1-0.5-1.8v-7h-1.9v-1h1.9v-3.2h1.9v3.2h3v1h-2.9v5.7c0,0.4,0,0.8,0,1.1c0,0.3,0.1,0.5,0.2,0.8
						c0.1,0.2,0.3,0.4,0.5,0.5s0.5,0.2,0.9,0.2c0.2,0,0.4,0,0.8,0s0.6-0.1,0.7-0.1V165.8z"/>
				</g>
			</g>
		</g>
		<polygon class="st5" points="115.1,20.6 45.1,20.6 10.1,81.2 45.1,141.8 115.1,141.8 150.1,81.2 		"/>
		<g>
			<path class="st4" d="M47.8,59.2c0-2.2,1.8-4,4-4c2.2,0,4,1.8,4,4c0,2.2-1.8,3.9-4,3.9C49.5,63.1,47.8,61.4,47.8,59.2 M45,87.7
				h1.9c0.6,0,1.2-0.7,1.2-1.3V71c0-0.6-0.6-1.4-1.2-1.4h-2.1v-4.5h9.6c0.8,0,1.2,0.8,1.2,2.9v18.4c0,0.6,0.7,1.3,1.3,1.3h1.9v4.2
				H45V87.7z"/>
			<path class="st4" d="M60.5,78.6c0-8.6,6.1-13.8,14.2-13.8c4.2,0,6.6,1,8.2,1.8v5.6h-2.9c-1.1-1-3-1.9-5.3-1.9
				c-3.9,0-6.7,2.9-6.7,8.5c0,5.8,2.6,8.2,6.5,8.2c3.2,0,4.8-1.1,6-2.1H83v5.1c-1.6,1.1-4.5,2.4-8.7,2.4
				C65.7,92.3,60.5,87.2,60.5,78.6"/>
			<path class="st4" d="M105.4,78.7c0-5.8-2.5-8.7-6.1-8.7c-3.6,0-6.1,2.9-6.1,8.7c0,5.8,2.5,8.2,6.1,8.2
				C103,87,105.4,84.5,105.4,78.7 M85.7,78.7c0-8.6,6.1-13.9,13.6-13.9c7.5,0,13.6,5.3,13.6,13.9c0,8.6-6.1,13.6-13.6,13.6
				C91.8,92.3,85.7,87.2,85.7,78.7"/>
			<path class="st4" d="M115.1,88.1c0-2.3,1.8-4.1,4.2-4.1c2.3,0,4.2,1.8,4.2,4.1c0,2.3-1.9,4.1-4.2,4.1
				C116.9,92.2,115.1,90.4,115.1,88.1"/>
			<path class="st4" d="M121.5,99.6c0.1-0.5,0.3-0.7,0.6-0.7c0.3,0,0.5,0.2,0.6,0.7H121.5z M122.1,98.4c-0.7,0-1.3,0.6-1.3,1.4
				c0,0.9,0.5,1.4,1.3,1.4h0c0.5,0,0.8-0.1,1-0.3l0,0v-0.4H123l0,0c-0.2,0.1-0.4,0.2-0.7,0.2c-0.5,0-0.7-0.2-0.8-0.8h1.8v0
				c0,0,0-0.1,0-0.2C123.3,98.9,122.8,98.4,122.1,98.4 M120.3,100.6c-0.1,0.1-0.3,0.2-0.6,0.2c-0.5,0-0.7-0.3-0.7-0.9
				c0-0.6,0.3-1,0.8-1c0.3,0,0.5,0.1,0.6,0.2l0,0h0.3v-0.5l0,0c-0.2-0.1-0.4-0.2-0.8-0.2c-0.8,0-1.4,0.6-1.4,1.4
				c0,0.9,0.5,1.4,1.4,1.4c0.4,0,0.7-0.2,0.9-0.3l0,0v-0.4L120.3,100.6L120.3,100.6z M117.5,97.5c-0.2,0-0.4,0.2-0.4,0.4
				c0,0.2,0.2,0.3,0.4,0.3c0.2,0,0.4-0.2,0.4-0.3C117.9,97.7,117.7,97.5,117.5,97.5 M117.6,98.5h-0.3v2.8h0.6v-2.4
				c0-0.2,0-0.3,0-0.4C117.7,98.5,117.7,98.5,117.6,98.5 M116.5,97.5c-0.5,0-0.8,0.2-0.8,0.8v0.2h-0.3v0.5h0.3v2.3h0.6v-2.3h0.6
				v-0.5h-0.6l0-0.2c0-0.3,0.1-0.3,0.3-0.3h0.2v-0.4l0,0C116.8,97.5,116.7,97.5,116.5,97.5 M114.8,97.5c-0.5,0-0.8,0.2-0.8,0.8v0.2
				h-0.3v0.5h0.3v2.3h0.6v-2.3h0.6v-0.5h-0.6v-0.2c0-0.3,0.1-0.3,0.3-0.3h0.3v-0.4l0,0C115.2,97.5,115,97.5,114.8,97.5 M111.8,100.8
				c-0.6,0-1-0.4-1-1.4c0-1,0.4-1.4,1-1.4c0.6,0,1,0.4,1,1.4C112.8,100.4,112.4,100.8,111.8,100.8 M111.8,97.5
				c-0.9,0-1.7,0.7-1.7,1.9c0,1.2,0.8,1.9,1.7,1.9c0.9,0,1.7-0.7,1.7-1.9C113.5,98.2,112.7,97.5,111.8,97.5 M107.7,99.5
				c-0.4-0.1-0.5-0.1-0.5-0.3c0-0.2,0.1-0.3,0.5-0.3c0.3,0,0.5,0.1,0.6,0.2l0,0h0.2v-0.5l0,0c-0.2-0.1-0.4-0.2-0.8-0.2
				c-0.6,0-1,0.3-1,0.8c0,0.5,0.3,0.7,0.9,0.8c0.4,0.1,0.5,0.2,0.5,0.4c0,0.2-0.2,0.3-0.5,0.4c-0.3,0-0.5-0.1-0.7-0.2l0,0h-0.2v0.5
				l0,0c0.2,0.1,0.5,0.2,0.9,0.2h0c0.7,0,1.1-0.4,1.1-0.9C108.7,99.9,108.3,99.6,107.7,99.5 M106.2,97.5c-0.2,0-0.3,0.1-0.3,0.3
				c0,0.1,0.1,0.2,0.1,0.3c0.1,0.1,0.1,0.1,0.1,0.1c0,0.1-0.1,0.1-0.2,0.2l0,0v0.3l0,0c0.4,0,0.7-0.3,0.7-0.7
				C106.6,97.7,106.4,97.5,106.2,97.5 M105.3,98.4c-0.3,0-0.6,0.2-0.7,0.3c0-0.2-0.1-0.3-0.2-0.3h-0.4v2.8h0.6v-2
				c0.2-0.1,0.4-0.3,0.8-0.3c0,0,0.1,0,0.1,0h0v-0.5l0,0C105.4,98.4,105.3,98.4,105.3,98.4 M101.6,99.6c0.1-0.5,0.3-0.7,0.6-0.7
				c0.3,0,0.5,0.2,0.6,0.7H101.6z M102.3,98.4c-0.7,0-1.3,0.6-1.3,1.4c0,0.9,0.5,1.4,1.3,1.4h0c0.5,0,0.8-0.1,1-0.3l0,0v-0.4h-0.2
				l0,0c-0.2,0.1-0.4,0.2-0.7,0.2c-0.5,0-0.7-0.2-0.8-0.8h1.8v0c0,0,0-0.1,0-0.2C103.5,98.9,103,98.4,102.3,98.4 M99.8,98.4
				c-0.4,0-0.7,0.2-1,0.3c0-0.2-0.1-0.3-0.2-0.3h-0.4v2.8h0.6v-2.1c0.2-0.1,0.5-0.3,0.8-0.3c0.2,0,0.4,0.1,0.4,0.4v1.9h0.6v-2.1
				C100.6,98.6,100.2,98.4,99.8,98.4 M97.2,99.9c0,0.6-0.3,0.9-0.7,0.9c-0.4,0-0.7-0.3-0.7-0.9c0-0.6,0.3-1,0.7-1
				C96.9,98.9,97.1,99.2,97.2,99.9L97.2,99.9z M96.4,98.4c-0.8,0-1.3,0.6-1.3,1.4c0,0.9,0.6,1.4,1.3,1.4c0.8,0,1.3-0.5,1.3-1.4
				C97.8,99,97.2,98.4,96.4,98.4 M94.4,98.5H94v2.8h0.6v-2.4c0-0.2,0-0.3,0-0.4C94.5,98.5,94.5,98.5,94.4,98.5 M94.3,97.5
				c-0.2,0-0.4,0.2-0.4,0.4c0,0.2,0.2,0.3,0.4,0.3c0.2,0,0.4-0.2,0.4-0.3C94.7,97.7,94.5,97.5,94.3,97.5 M92.6,99.5
				c-0.4-0.1-0.5-0.1-0.5-0.3c0-0.2,0.1-0.3,0.5-0.3c0.3,0,0.5,0.1,0.6,0.2l0,0h0.2v-0.5l0,0c-0.2-0.1-0.4-0.2-0.8-0.2
				c-0.6,0-1,0.3-1,0.8c0,0.5,0.3,0.7,0.9,0.8c0.4,0.1,0.5,0.2,0.5,0.4c0,0.2-0.2,0.3-0.5,0.4c-0.3,0-0.5-0.1-0.7-0.2l0,0h-0.2v0.5
				l0,0c0.2,0.1,0.5,0.2,0.9,0.2h0c0.7,0,1.1-0.4,1.1-0.9C93.6,99.9,93.2,99.6,92.6,99.5 M90.3,99.5c-0.4-0.1-0.5-0.1-0.5-0.3
				c0-0.2,0.1-0.3,0.5-0.3c0.3,0,0.5,0.1,0.6,0.2l0,0h0.2v-0.5l0,0c-0.2-0.1-0.4-0.2-0.8-0.2c-0.6,0-1,0.3-1,0.8
				c0,0.5,0.3,0.7,0.9,0.8c0.4,0.1,0.5,0.2,0.5,0.4c0,0.2-0.2,0.3-0.5,0.4c-0.3,0-0.5-0.1-0.7-0.2l0,0h-0.2v0.5l0,0
				c0.2,0.1,0.5,0.2,0.9,0.2h0c0.7,0,1.1-0.4,1.1-0.9C91.2,99.9,90.9,99.6,90.3,99.5 M88.4,97.5c-0.2,0-0.4,0.2-0.4,0.4
				c0,0.2,0.2,0.3,0.4,0.3c0.2,0,0.4-0.2,0.4-0.3C88.8,97.7,88.6,97.5,88.4,97.5 M88.4,98.5h-0.3v2.8h0.6v-2.4c0-0.2,0-0.3,0-0.4
				C88.6,98.5,88.6,98.5,88.4,98.5 M86.8,98.4c-0.4,0-0.7,0.2-1,0.4c-0.1-0.3-0.4-0.4-0.6-0.4c-0.4,0-0.7,0.2-0.9,0.3
				c0-0.2-0.1-0.3-0.2-0.3h-0.4v2.8h0.6v-2.1c0.2-0.1,0.4-0.2,0.7-0.2c0.2,0,0.3,0.1,0.3,0.4v1.9h0.6v-2.1c0.2-0.1,0.4-0.2,0.7-0.2
				c0.2,0,0.3,0.1,0.3,0.4v1.9h0.6v-2.1C87.5,98.6,87.2,98.4,86.8,98.4 M82.3,98.4c-0.4,0-0.7,0.2-1,0.4c-0.1-0.3-0.4-0.4-0.6-0.4
				c-0.4,0-0.7,0.2-0.9,0.3c0-0.2-0.1-0.3-0.2-0.3h-0.4v2.8h0.6v-2.1c0.2-0.1,0.4-0.2,0.7-0.2c0.2,0,0.3,0.1,0.3,0.4v1.9h0.6v-2.1
				c0.2-0.1,0.4-0.2,0.7-0.2c0.2,0,0.3,0.1,0.3,0.4v1.9H83v-2.1C83,98.6,82.7,98.4,82.3,98.4 M77.3,100.8c-0.4,0-0.7-0.3-0.7-0.9
				c0-0.6,0.3-1,0.7-1c0.4,0,0.7,0.3,0.7,1C78,100.5,77.7,100.8,77.3,100.8 M77.3,98.4c-0.8,0-1.3,0.6-1.3,1.4
				c0,0.9,0.6,1.4,1.3,1.4c0.8,0,1.3-0.5,1.3-1.4C78.6,99,78.1,98.4,77.3,98.4 M75.4,100.4c-0.2,0.2-0.5,0.4-0.9,0.4
				c-0.6,0-1-0.5-1-1.4c0-0.9,0.4-1.4,1.1-1.4c0.4,0,0.6,0.1,0.8,0.3l0,0h0.3v-0.5l0,0c-0.3-0.2-0.5-0.3-1.1-0.3
				c-1,0-1.7,0.7-1.7,1.9c0,1.2,0.7,1.9,1.7,1.9c0.5,0,0.9-0.2,1.2-0.4l0,0v-0.5L75.4,100.4L75.4,100.4z M70.5,98.4
				c-0.4,0-0.7,0.2-1,0.3c0-0.2-0.1-0.3-0.2-0.3h-0.4v2.8h0.6v-2.1c0.2-0.1,0.5-0.3,0.8-0.3c0.3,0,0.4,0.1,0.4,0.4v1.9h0.6v-2.1
				C71.2,98.6,70.9,98.4,70.5,98.4 M67.8,99.9c0,0.6-0.3,0.9-0.7,0.9c-0.4,0-0.7-0.3-0.7-0.9c0-0.6,0.3-1,0.7-1
				C67.5,98.9,67.8,99.2,67.8,99.9z M67.1,98.4c-0.8,0-1.3,0.6-1.3,1.4c0,0.9,0.6,1.4,1.3,1.4c0.8,0,1.3-0.5,1.3-1.4
				C68.4,99,67.8,98.4,67.1,98.4 M65,97.5c-0.2,0-0.4,0.2-0.4,0.4c0,0.2,0.2,0.3,0.4,0.3c0.2,0,0.4-0.2,0.4-0.3
				C65.3,97.7,65.2,97.5,65,97.5 M65,98.5h-0.3v2.8h0.6v-2.4c0-0.2,0-0.3,0-0.4C65.2,98.5,65.1,98.5,65,98.5 M63.6,100.5v-1.6h0.6
				v-0.5h-0.6v-0.7H63v0.7h-0.3v0.5H63v1.6c0,0.5,0.3,0.7,0.8,0.7c0.2,0,0.3,0,0.4-0.1l0,0v-0.4H64
				C63.7,100.8,63.6,100.8,63.6,100.5 M61.7,100.6c-0.2,0.2-0.3,0.3-0.6,0.3c-0.3,0-0.5-0.1-0.5-0.4c0-0.3,0.2-0.4,0.6-0.4
				c0.2,0,0.3,0,0.5,0V100.6z M61.3,98.4c-0.4,0-0.8,0.1-1,0.2l0,0v0.5h0.2l0,0c0.2-0.1,0.4-0.2,0.7-0.2c0.4,0,0.5,0.1,0.5,0.4v0.3
				c-0.2,0-0.3-0.1-0.6-0.1c-0.6,0-1.1,0.3-1.1,0.9c0,0.6,0.4,0.8,0.9,0.9h0c0.3,0,0.6-0.1,0.8-0.3c0,0.2,0.1,0.3,0.3,0.3h0.2v-2
				C62.3,98.7,61.9,98.4,61.3,98.4 M58.9,98.4c-0.4,0-0.7,0.2-1,0.4c-0.1-0.3-0.4-0.4-0.6-0.4c-0.4,0-0.7,0.2-0.9,0.3
				c0-0.2-0.1-0.3-0.2-0.3h-0.4v2.8h0.6v-2.1c0.2-0.1,0.4-0.2,0.7-0.2c0.2,0,0.3,0.1,0.3,0.4v1.9H58v-2.1c0.2-0.1,0.4-0.2,0.7-0.2
				c0.2,0,0.3,0.1,0.3,0.4v1.9h0.6v-2.1C59.6,98.6,59.3,98.4,58.9,98.4 M55.1,98.4c-0.3,0-0.6,0.2-0.7,0.3c0-0.2-0.1-0.3-0.2-0.3
				h-0.4v2.8h0.6v-2c0.2-0.1,0.4-0.3,0.8-0.3c0,0,0.1,0,0.1,0l0,0v-0.5l0,0C55.3,98.4,55.2,98.4,55.1,98.4 M52,100.8
				c-0.4,0-0.7-0.3-0.7-0.9c0-0.6,0.3-1,0.7-1c0.4,0,0.7,0.3,0.7,1C52.7,100.5,52.4,100.8,52,100.8 M52,98.4c-0.8,0-1.3,0.6-1.3,1.4
				c0,0.9,0.6,1.4,1.3,1.4c0.8,0,1.3-0.5,1.3-1.4C53.3,99,52.8,98.4,52,98.4 M50.1,97.5c-0.5,0-0.8,0.2-0.8,0.8v0.2H49v0.5h0.3v2.3
				H50v-2.3h0.6v-0.5H50v-0.2c0-0.3,0.1-0.3,0.3-0.3h0.3v-0.4l0,0C50.5,97.5,50.3,97.5,50.1,97.5 M47.9,98.4c-0.4,0-0.7,0.2-1,0.3
				c0-0.2-0.1-0.3-0.2-0.3h-0.4v2.8h0.6v-2.1c0.2-0.1,0.5-0.3,0.8-0.3c0.3,0,0.4,0.1,0.4,0.4v1.9h0.6v-2.1
				C48.7,98.6,48.3,98.4,47.9,98.4 M45,101.3h0.7v-3.7H45V101.3z"/>
		</g>
	</g>
</g>
</svg>
