<?xml version="1.0" encoding="UTF-8"?>
<!DOCTYPE svg PUBLIC "-//W3C//DTD SVG 1.1//EN" "http://www.w3.org/Graphics/SVG/1.1/DTD/svg11.dtd">
<svg version="1.1" xmlns="http://www.w3.org/2000/svg" xmlns:xlink="http://www.w3.org/1999/xlink" x="0" y="0" width="376.442" height="134.01" viewBox="0, 0, 376.442, 134.01">
  <g id="Open_Rights_Group">
    <g>
      <path d="M199.981,134.01 L0.003,133.985 L0.019,0 L199.997,0.025 z" fill="#0B0B09"/>
      <g>
        <path d="M35.487,33.686 C39.592,33.686 41.261,38.442 41.261,48.148 C41.261,57.793 39.657,62.612 35.487,62.612 C31.316,62.612 29.648,57.853 29.648,48.148 C29.648,38.378 31.252,33.686 35.487,33.686 M52.808,48.599 C52.808,32.978 46.267,24.366 35.487,24.366 C24.902,24.366 18.101,33.109 18.101,48.148 C18.101,55.5 19.722,61.325 22.596,65.391 L22.531,72.954 L32.347,72.954 L32.347,108.049 L43.767,108.049 L43.767,69.779 C49.45,66.332 52.808,58.975 52.808,48.599" fill="#777776"/>
        <path d="M78.634,100.253 C74.463,100.253 72.795,95.501 72.795,85.795 C72.795,76.024 74.399,71.331 78.634,71.331 C82.739,71.331 84.408,76.09 84.408,85.795 C84.408,95.436 82.804,100.253 78.634,100.253 M84.341,62.956 L84.341,25.432 L63.185,25.432 L63.106,35.845 L72.921,35.845 L72.921,62.994 C65.668,65.652 61.248,73.673 61.248,85.795 C61.248,100.901 68.047,109.642 78.634,109.642 C89.218,109.642 95.954,100.965 95.954,86.243 C95.954,73.617 91.674,65.575 84.341,62.956" fill="#D9272A"/>
        <path d="M120.679,33.686 C124.785,33.686 126.452,38.442 126.452,48.148 C126.452,57.793 124.847,62.612 120.679,62.612 C116.507,62.612 114.838,57.853 114.838,48.148 C114.838,38.378 116.445,33.686 120.679,33.686 M138,48.599 C138,32.978 131.459,24.366 120.679,24.366 C110.093,24.366 103.294,33.109 103.294,48.148 C103.294,55.5 104.913,61.325 107.786,65.391 L107.724,72.954 L117.538,72.954 L117.538,108.049 L128.957,108.049 L128.957,69.779 C134.642,66.332 138,58.975 138,48.599" fill="#777776"/>
        <path d="M163.825,100.253 C159.655,100.253 157.986,95.501 157.986,85.795 C157.986,76.024 159.59,71.331 163.825,71.331 C167.931,71.331 169.597,76.09 169.597,85.795 C169.597,95.436 167.995,100.253 163.825,100.253 M169.533,62.956 L169.533,25.432 L148.376,25.432 L148.295,35.845 L158.113,35.845 L158.113,62.994 C150.861,65.652 146.44,73.673 146.44,85.795 C146.44,100.901 153.238,109.642 163.825,109.642 C174.412,109.642 181.148,100.965 181.148,86.243 C181.148,73.617 176.866,65.575 169.533,62.956" fill="#777776"/>
      </g>
    </g>
    <g>
      <path d="M376.445,133.705 L200.019,134.01 L200,0.305 L376.426,0 z" fill="#D9272A"/>
      <g>
        <desc>OPEN</desc>
        <path d="M225.996,27.232 C225.358,26.546 224.369,26.098 223.155,26.098 C221.94,26.098 220.919,26.546 220.28,27.232 C219.418,28.125 219.194,29.109 219.194,33.191 C219.194,37.271 219.418,38.253 220.28,39.148 C220.919,39.834 221.94,40.28 223.155,40.28 C224.369,40.28 225.358,39.834 225.996,39.148 C226.861,38.253 227.115,37.271 227.115,33.191 C227.115,29.109 226.861,28.125 225.996,27.232 M229.288,41.65 C227.69,43.141 225.741,43.974 223.155,43.974 C220.568,43.974 218.587,43.141 216.991,41.65 C214.691,39.506 214.755,36.854 214.755,33.191 C214.755,29.526 214.691,26.874 216.991,24.73 C218.587,23.241 220.568,22.406 223.155,22.406 C225.741,22.406 227.69,23.241 229.288,24.73 C231.586,26.874 231.555,29.526 231.555,33.191 C231.555,36.854 231.586,39.506 229.288,41.65" fill="#FFFFFE"/>
        <path d="M244.681,26.279 L240.529,26.279 L240.529,32.089 L244.681,32.089 C246.693,32.089 247.972,30.926 247.972,29.198 C247.972,27.471 246.693,26.279 244.681,26.279 M244.904,35.812 L240.529,35.812 L240.529,43.797 L236.09,43.797 L236.09,22.587 L244.904,22.587 C249.599,22.587 252.411,25.593 252.411,29.198 C252.411,32.803 249.599,35.812 244.904,35.812" fill="#FFFFFE"/>
        <path d="M256.148,43.797 L256.148,22.585 L271.127,22.585 L271.127,26.279 L260.587,26.279 L260.587,31.252 L269.562,31.252 L269.562,34.947 L260.587,34.947 L260.587,40.102 L271.127,40.102 L271.127,43.797 z" fill="#FFFFFE"/>
        <path d="M288.916,43.797 L279.91,30.776 L279.91,43.797 L275.471,43.797 L275.471,22.585 L279.431,22.585 L288.437,35.575 L288.437,22.585 L292.874,22.585 L292.874,43.797 z" fill="#FFFFFE"/>
      </g>
      <g>
        <desc>RIGHTS</desc>
        <path d="M223.378,59.801 L219.194,59.801 L219.194,65.401 L223.378,65.401 C225.327,65.401 226.603,64.24 226.603,62.6 C226.603,60.962 225.327,59.801 223.378,59.801 M226.827,77.317 L222.388,68.856 L219.194,68.856 L219.194,77.317 L214.755,77.317 L214.755,56.107 L223.666,56.107 C228.297,56.107 231.043,59.055 231.043,62.6 C231.043,65.58 229.095,67.427 226.892,68.173 L231.969,77.317 z" fill="#FFFFFE"/>
        <path d="M235.642,56.107 L240.081,56.107 L240.081,77.317 L235.642,77.317 z" fill="#FFFFFE"/>
        <path d="M259.404,75.084 C257.584,76.84 255.412,77.496 252.985,77.496 C250.494,77.496 248.45,76.661 246.853,75.173 C244.554,73.027 244.616,70.376 244.616,66.711 C244.616,63.048 244.554,60.395 246.853,58.252 C248.45,56.761 250.43,55.928 252.985,55.928 C258.256,55.928 260.938,59.147 261.545,62.72 L257.072,62.72 C256.562,60.723 255.253,59.622 252.985,59.622 C251.771,59.622 250.78,60.069 250.142,60.754 C249.28,61.649 249.056,62.633 249.056,66.711 C249.056,70.794 249.28,71.805 250.142,72.699 C250.78,73.385 251.771,73.802 252.985,73.802 C254.326,73.802 255.412,73.354 256.146,72.61 C256.882,71.836 257.17,70.881 257.17,69.78 L257.17,68.976 L252.985,68.976 L252.985,65.521 L261.576,65.521 L261.576,68.62 C261.576,71.688 261.002,73.535 259.404,75.084" fill="#FFFFFE"/>
        <path d="M278.217,77.317 L278.217,68.439 L270.519,68.439 L270.519,77.317 L266.08,77.317 L266.08,56.107 L270.519,56.107 L270.519,64.774 L278.217,64.774 L278.217,56.107 L282.658,56.107 L282.658,77.317 z" fill="#FFFFFE"/>
        <path d="M296.644,59.801 L296.644,77.317 L292.203,77.317 L292.203,59.801 L286.265,59.801 L286.265,56.107 L302.586,56.107 L302.586,59.801 z" fill="#FFFFFE"/>
        <path d="M312.456,77.496 C309.005,77.496 306.387,76.811 304.151,74.695 L307.025,72.015 C308.464,73.354 310.41,73.802 312.518,73.802 C315.138,73.802 316.543,72.88 316.543,71.18 C316.543,70.436 316.319,69.811 315.84,69.392 C315.394,69.006 314.881,68.796 313.828,68.648 L311.081,68.292 C309.131,68.023 307.697,67.456 306.675,66.533 C305.587,65.521 305.046,64.149 305.046,62.363 C305.046,58.58 308.047,55.928 312.965,55.928 C316.097,55.928 318.364,56.643 320.313,58.401 L317.502,60.993 C316.062,59.711 314.34,59.533 312.839,59.533 C310.474,59.533 309.326,60.754 309.326,62.214 C309.326,62.75 309.517,63.316 309.995,63.734 C310.443,64.12 311.177,64.448 312.103,64.566 L314.787,64.925 C316.86,65.193 318.17,65.729 319.131,66.562 C320.344,67.637 320.887,69.184 320.887,71.061 C320.887,75.173 317.212,77.496 312.456,77.496" fill="#FFFFFE"/>
      </g>
      <g>
        <desc>GROUP</desc>
        <path d="M229.543,109.193 C227.723,110.948 225.551,111.604 223.124,111.604 C220.632,111.604 218.589,110.769 216.991,109.281 C214.692,107.135 214.755,104.484 214.755,100.819 C214.755,97.156 214.692,94.505 216.991,92.359 C218.589,90.869 220.568,90.036 223.124,90.036 C228.394,90.036 231.076,93.253 231.683,96.828 L227.211,96.828 C226.701,94.833 225.391,93.732 223.124,93.732 C221.909,93.732 220.92,94.177 220.28,94.862 C219.418,95.755 219.194,96.737 219.194,100.819 C219.194,104.903 219.418,105.914 220.28,106.807 C220.92,107.492 221.909,107.91 223.124,107.91 C224.465,107.91 225.551,107.463 226.284,106.718 C227.02,105.943 227.308,104.99 227.308,103.888 L227.308,103.084 L223.124,103.084 L223.124,99.627 L231.715,99.627 L231.715,102.727 C231.715,105.796 231.14,107.644 229.543,109.193" fill="#FFFFFE"/>
        <path d="M244.842,93.908 L240.658,93.908 L240.658,99.509 L244.842,99.509 C246.79,99.509 248.067,98.348 248.067,96.708 C248.067,95.071 246.79,93.908 244.842,93.908 M248.291,111.425 L243.851,102.964 L240.658,102.964 L240.658,111.425 L236.218,111.425 L236.218,90.215 L245.13,90.215 C249.76,90.215 252.507,93.163 252.507,96.708 C252.507,99.689 250.558,101.535 248.355,102.281 L253.433,111.425 z" fill="#FFFFFE"/>
        <path d="M267.582,94.862 C266.944,94.177 265.953,93.73 264.739,93.73 C263.526,93.73 262.505,94.177 261.864,94.862 C261.002,95.754 260.778,96.737 260.778,100.821 C260.778,104.901 261.002,105.885 261.864,106.78 C262.505,107.463 263.526,107.908 264.739,107.908 C265.953,107.908 266.944,107.463 267.582,106.78 C268.445,105.885 268.7,104.901 268.7,100.821 C268.7,96.737 268.445,95.754 267.582,94.862 M270.872,109.28 C269.276,110.771 267.327,111.604 264.739,111.604 C262.152,111.604 260.173,110.771 258.575,109.28 C256.276,107.135 256.339,104.484 256.339,100.821 C256.339,97.156 256.276,94.505 258.575,92.359 C260.173,90.869 262.152,90.036 264.739,90.036 C267.327,90.036 269.276,90.869 270.872,92.359 C273.172,94.505 273.139,97.156 273.139,100.821 C273.139,104.484 273.172,107.135 270.872,109.28" fill="#FFFFFE"/>
        <path d="M285.691,111.604 C281.029,111.604 277.323,108.655 277.323,104.156 L277.323,90.215 L281.763,90.215 L281.763,104.008 C281.763,106.452 283.297,107.91 285.691,107.91 C288.086,107.91 289.651,106.452 289.651,104.008 L289.651,90.215 L294.059,90.215 L294.059,104.156 C294.059,108.655 290.354,111.604 285.691,111.604" fill="#FFFFFE"/>
        <path d="M307.602,93.908 L303.448,93.908 L303.448,99.718 L307.602,99.718 C309.614,99.718 310.891,98.556 310.891,96.828 C310.891,95.1 309.614,93.908 307.602,93.908 M307.825,103.441 L303.448,103.441 L303.448,111.425 L299.011,111.425 L299.011,90.215 L307.825,90.215 C312.52,90.215 315.33,93.223 315.33,96.828 C315.33,100.431 312.52,103.441 307.825,103.441" fill="#FFFFFE"/>
      </g>
    </g>
  </g>
</svg>
